<?xml version="1.0" encoding="UTF-8" standalone="no"?>
<svg width="336px" height="382px" viewBox="0 0 336 382" version="1.1" xmlns="http://www.w3.org/2000/svg" xmlns:xlink="http://www.w3.org/1999/xlink" xmlns:sketch="http://www.bohemiancoding.com/sketch/ns">
    <!-- Generator: Sketch 3.3.3 (12072) - http://www.bohemiancoding.com/sketch -->
    <title>collection-black--backup</title>
    <desc>Created with Sketch.</desc>
    <defs></defs>
    <g id="Page-1" stroke="none" stroke-width="1" fill="none" fill-rule="evenodd" sketch:type="MSPage">
        <g id="collection-black--backup" sketch:type="MSLayerGroup" fill="#000000">
            <g id="Page-1" sketch:type="MSShapeGroup">
                <g id="collection">
                    <path d="M210,1.99124431 C210,0.891510444 209.109364,0 208.005568,0 L1.99443167,0 C0.892937473,0 0,0.887404312 0,1.99505333 L0,298.004947 C0,299.106784 0.89599229,300 1.99926044,300 L51,300 L51,28 L210,28 L210,1.99124431 Z" id="Rectangle-1"></path>
                    <path d="M273,43.9912443 C273,42.8915104 272.109364,42 271.005568,42 L64.9944317,42 C63.8929375,42 63,42.8874043 63,43.9950533 L63,340.004947 C63,341.106784 63.8959923,342 64.9992604,342 L114,342 L114,70 L273,70 L273,43.9912443 Z" id="Rectangle-2"></path>
                    <rect id="Rectangle-3" x="126" y="82" width="210" height="300"></rect>
                </g>
            </g>
        </g>
    </g>
</svg>