<?xml version="1.0" encoding="UTF-8" standalone="no"?>
<svg width="90px" height="89px" viewBox="0 0 90 89" version="1.1" xmlns="http://www.w3.org/2000/svg" xmlns:xlink="http://www.w3.org/1999/xlink" xmlns:sketch="http://www.bohemiancoding.com/sketch/ns">
    <!-- Generator: Sketch Beta 3.2 (9961) - http://www.bohemiancoding.com/sketch -->
    <title>search-grey</title>
    <desc>Created with Sketch Beta.</desc>
    <defs></defs>
    <g id="Page-1" stroke="none" stroke-width="1" fill="none" fill-rule="evenodd" sketch:type="MSPage">
        <g id="search-grey" sketch:type="MSLayerGroup" fill="#DDDDDD">
            <path d="M54.176,65.696 C48.751,69.058 42.352,71 35.5,71 C15.894,71 0,55.106 0,35.5 C0,15.894 15.894,0 35.5,0 C55.106,0 71,15.894 71,35.5 C71,42.091 69.204,48.263 66.074,53.553 L89.067,76.546 L77.046,88.567 L54.176,65.697 L54.176,65.696 Z M35,57 C47.15,57 57,47.15 57,35 C57,22.85 47.15,13 35,13 C22.85,13 13,22.85 13,35 C13,47.15 22.85,57 35,57 L35,57 Z" id="Shape" sketch:type="MSShapeGroup"></path>
        </g>
    </g>
</svg>